<?xml version="1.0" encoding="UTF-8" standalone="no"?>
<!-- Created with Inkscape (http://www.inkscape.org/) -->

<svg
   xmlns:dc="http://purl.org/dc/elements/1.1/"
   xmlns:cc="http://creativecommons.org/ns#"
   xmlns:rdf="http://www.w3.org/1999/02/22-rdf-syntax-ns#"
   xmlns:svg="http://www.w3.org/2000/svg"
   xmlns="http://www.w3.org/2000/svg"
   xmlns:sodipodi="http://sodipodi.sourceforge.net/DTD/sodipodi-0.dtd"
   xmlns:inkscape="http://www.inkscape.org/namespaces/inkscape"
   width="115mm"
   height="143mm"
   viewBox="0 0 115 143"
   version="1.1"
   id="svg149"
   inkscape:version="0.92.3 (2405546, 2018-03-11)"
   sodipodi:docname="drawing.svg">
  <defs
     id="defs143" />
  <sodipodi:namedview
     id="base"
     pagecolor="#ffffff"
     bordercolor="#666666"
     borderopacity="1.0"
     inkscape:pageopacity="0.0"
     inkscape:pageshadow="2"
     inkscape:zoom="0.7"
     inkscape:cx="275.06302"
     inkscape:cy="403.67197"
     inkscape:document-units="mm"
     inkscape:current-layer="layer1"
     showgrid="false"
     inkscape:window-width="1920"
     inkscape:window-height="1055"
     inkscape:window-x="1919"
     inkscape:window-y="0"
     inkscape:window-maximized="1" />
  <metadata
     id="metadata146">
    <rdf:RDF>
      <cc:Work
         rdf:about="">
        <dc:format>image/svg+xml</dc:format>
        <dc:type
           rdf:resource="http://purl.org/dc/dcmitype/StillImage" />
        <dc:title></dc:title>
      </cc:Work>
    </rdf:RDF>
  </metadata>
  <g
     inkscape:label="Layer 1"
     inkscape:groupmode="layer"
     id="layer1"
     transform="translate(0,-154)">
    <path
       style="fill:#7d3efb;stroke-width:0.35277775"
       d="m 3.0047765,293.79792 -0.91331,-1.0854 v -66.97364 -66.97364 l 0.91331,-1.0854 0.9133,-1.0854 H 58.006747 112.09541 l 0.91331,1.0854 0.9133,1.0854 -0.0117,67.26529 c -0.0114,65.26991 -0.0314,67.28883 -0.6739,68.05904 l -0.66218,0.79375 H 58.246137 3.9180765 Z M 108.54418,258.81179 c 0.072,-23.57338 3.5e-4,-29.54513 -0.35429,-29.54513 -0.24446,0 -7.42813,6.985 -15.963703,15.52222 -13.56129,13.56392 -15.65275,15.52222 -16.57769,15.52222 -0.9261,0 -3.16515,-2.10634 -17.90496,-16.84375 l -16.84649,-16.84374 -16.58056,16.57775 -16.5805705,16.57776 v 14.14191 c 0,7.77806 0.10637,14.24829 0.23638,14.37831 0.13002,0.13001 22.7915805,0.19616 50.3590305,0.14699 l 50.122643,-0.0894 z m -16.231203,-18.6958 16.317383,-16.31455 v -15.96461 c 0,-12.56544 -0.0942,-15.96462 -0.44248,-15.96462 -0.24336,0 -7.42612,6.985 -15.961693,15.52223 -13.56129,13.56392 -15.65275,15.52222 -16.57769,15.52222 -0.9261,0 -3.16515,-2.10634 -17.90496,-16.84375 l -16.84649,-16.84374 -16.58056,16.57775 -16.5805705,16.57775 v 15.96461 c 0,12.5651 0.0942,15.9646 0.44246,15.9646 0.24335,0 7.5054905,-7.06438 16.1380905,-15.69861 12.3494,-12.35174 15.88428,-15.69861 16.58046,-15.69861 0.69702,0 4.44099,3.55675 17.63898,16.75694 9.21479,9.21632 16.91291,16.75694 17.10693,16.75694 0.19402,0 7.69558,-7.34154 16.67014,-16.31455 z m 0,-37.39444 16.317383,-16.31455 v -2.02522 -2.02523 l -11.429223,-9.53122 -11.42922,-9.53122 -38.92981,0.0897 -38.9298005,0.0897 -0.0904,26.72292 c -0.0721,21.30968 -3.3e-4,26.72291 0.35427,26.72291 0.24457,0 7.5077105,-7.06437 16.1403105,-15.69861 12.3494,-12.35173 15.88428,-15.69861 16.58046,-15.69861 0.69702,0 4.44099,3.55676 17.63898,16.75695 9.21479,9.21632 16.91291,16.75694 17.10693,16.75694 0.19402,0 7.69558,-7.34155 16.67014,-16.31455 z m 16.140993,-34.69123 v -4.55672 l -5.4409,-0.0977 c -2.9925,-0.0537 -5.562063,0.0256 -5.710143,0.17639 -0.31549,0.32119 10.276933,9.28135 10.798263,9.13427 0.21184,-0.0598 0.35278,-1.91996 0.35278,-4.65623 z"
       id="path574"
       inkscape:connector-curvature="0" />
  </g>
</svg>
