<?xml version="1.0" encoding="UTF-8" standalone="no"?>
<!-- Created with Inkscape (http://www.inkscape.org/) -->

<svg
   xmlns:dc="http://purl.org/dc/elements/1.1/"
   xmlns:cc="http://creativecommons.org/ns#"
   xmlns:rdf="http://www.w3.org/1999/02/22-rdf-syntax-ns#"
   xmlns:svg="http://www.w3.org/2000/svg"
   xmlns="http://www.w3.org/2000/svg"
   xmlns:sodipodi="http://sodipodi.sourceforge.net/DTD/sodipodi-0.dtd"
   xmlns:inkscape="http://www.inkscape.org/namespaces/inkscape"
   width="115mm"
   height="143mm"
   viewBox="0 0 115 143"
   version="1.1"
   id="svg149"
   inkscape:version="0.92.3 (2405546, 2018-03-11)"
   sodipodi:docname="drawing.svg">
  <defs
     id="defs143" />
  <sodipodi:namedview
     id="base"
     pagecolor="#ffffff"
     bordercolor="#666666"
     borderopacity="1.0"
     inkscape:pageopacity="0"
     inkscape:pageshadow="2"
     inkscape:zoom="0.7"
     inkscape:cx="275.06302"
     inkscape:cy="460.81483"
     inkscape:document-units="mm"
     inkscape:current-layer="layer1"
     showgrid="false"
     inkscape:window-width="1920"
     inkscape:window-height="1055"
     inkscape:window-x="1919"
     inkscape:window-y="0"
     inkscape:window-maximized="1" />
  <metadata
     id="metadata146">
    <rdf:RDF>
      <cc:Work
         rdf:about="">
        <dc:format>image/svg+xml</dc:format>
        <dc:type
           rdf:resource="http://purl.org/dc/dcmitype/StillImage" />
        <dc:title></dc:title>
      </cc:Work>
    </rdf:RDF>
  </metadata>
  <g
     inkscape:label="Layer 1"
     inkscape:groupmode="layer"
     id="layer1"
     transform="translate(0,-154)">
    <path
       style="fill:#7d3efc;stroke-width:0.35277775"
       d="m 3.0047749,294.17591 -0.913304,-1.0854 v -66.97364 -66.97364 l 0.913304,-1.0854 0.913304,-1.0854 H 58.006747 112.09541 l 0.91331,1.0854 0.9133,1.0854 -0.0117,67.26529 c -0.0114,65.26991 -0.0314,67.28883 -0.67391,68.05904 l -0.66218,0.79375 H 58.246142 3.9180789 Z M 108.54418,259.18978 c 0.072,-23.57338 3.5e-4,-29.54513 -0.35428,-29.54513 -0.24447,0 -7.42814,6.985 -15.963708,15.52222 -13.5613,13.56392 -15.65275,15.52222 -16.57769,15.52222 -0.92611,0 -3.16515,-2.10634 -17.904959,-16.84375 L 40.897053,227.0016 24.316485,243.57935 7.7359149,260.15711 v 14.14191 c 0,7.77806 0.106375,14.24829 0.236389,14.37831 0.130014,0.13001 22.7915761,0.19616 50.3590271,0.14699 l 50.122639,-0.0894 z m -16.231198,-18.6958 16.317378,-16.31455 v -15.96461 c 0,-12.56544 -0.0942,-15.96462 -0.44248,-15.96462 -0.24336,0 -7.42612,6.985 -15.961688,15.52223 -13.5613,13.56392 -15.65275,15.52222 -16.57769,15.52222 -0.92611,0 -3.16515,-2.10634 -17.904959,-16.84375 L 40.897053,189.60716 24.316485,206.18491 7.7359149,222.76266 v 15.96461 c 0,12.5651 0.09422,15.9646 0.442459,15.9646 0.243352,0 7.5054951,-7.06438 16.1380961,-15.69861 12.349397,-12.35174 15.884278,-15.69861 16.58046,-15.69861 0.697015,0 4.440989,3.55675 17.638983,16.75694 9.214789,9.21632 16.912909,16.75694 17.106919,16.75694 0.19402,0 7.69559,-7.34154 16.67015,-16.31455 z m 0,-37.39444 16.317378,-16.31455 v -2.02522 -2.02523 l -11.429218,-9.53122 -11.42922,-9.53122 -38.929808,0.0898 -38.9298101,0.0897 -0.09041,26.72292 c -0.0721,21.30968 -3.34e-4,26.72291 0.354264,26.72291 0.244572,0 7.5077131,-7.06437 16.1403141,-15.69861 12.349397,-12.35173 15.884278,-15.69861 16.58046,-15.69861 0.697015,0 4.440989,3.55676 17.638983,16.75695 9.214789,9.21632 16.912909,16.75694 17.106919,16.75694 0.19402,0 7.69559,-7.34155 16.67015,-16.31455 z"
       id="path779"
       inkscape:connector-curvature="0" />
  </g>
</svg>
