<?xml version="1.0" encoding="UTF-8" standalone="no"?>
<!-- Created with Inkscape (http://www.inkscape.org/) -->

<svg
   xmlns:dc="http://purl.org/dc/elements/1.1/"
   xmlns:cc="http://creativecommons.org/ns#"
   xmlns:rdf="http://www.w3.org/1999/02/22-rdf-syntax-ns#"
   xmlns:svg="http://www.w3.org/2000/svg"
   xmlns="http://www.w3.org/2000/svg"
   xmlns:sodipodi="http://sodipodi.sourceforge.net/DTD/sodipodi-0.dtd"
   xmlns:inkscape="http://www.inkscape.org/namespaces/inkscape"
   width="194mm"
   height="141mm"
   viewBox="0 0 194 141"
   version="1.1"
   id="svg304"
   inkscape:version="0.92.3 (2405546, 2018-03-11)"
   sodipodi:docname="term.svg">
  <defs
     id="defs298" />
  <sodipodi:namedview
     id="base"
     pagecolor="#ffffff"
     bordercolor="#666666"
     borderopacity="1.0"
     inkscape:pageopacity="0.0"
     inkscape:pageshadow="2"
     inkscape:zoom="0.98994949"
     inkscape:cx="403.35158"
     inkscape:cy="300.63415"
     inkscape:document-units="mm"
     inkscape:current-layer="layer1"
     showgrid="false"
     inkscape:window-width="1920"
     inkscape:window-height="1055"
     inkscape:window-x="1919"
     inkscape:window-y="0"
     inkscape:window-maximized="1" />
  <metadata
     id="metadata301">
    <rdf:RDF>
      <cc:Work
         rdf:about="">
        <dc:format>image/svg+xml</dc:format>
        <dc:type
           rdf:resource="http://purl.org/dc/dcmitype/StillImage" />
        <dc:title></dc:title>
      </cc:Work>
    </rdf:RDF>
  </metadata>
  <g
     inkscape:label="Layer 1"
     inkscape:groupmode="layer"
     id="layer1"
     transform="translate(0,-156)">
    <path
       style="fill:#7d3efc;stroke-width:0.45605522"
       d="m 2.8256606,293.10407 -1.499673,-1.1047 v -65.42315 -65.42315 l 1.499673,-1.10469 1.499677,-1.10469 H 97.105154 189.88496 l 1.49968,1.10469 1.49967,1.10469 v 65.16727 65.16728 l -1.02165,0.96 c -0.56192,0.528 -1.56323,1.14026 -2.22516,1.36058 -0.73454,0.24447 -37.07277,0.40055 -93.257816,0.40055 H 4.3253376 Z M 182.89209,226.57622 V 165.9843 H 96.861434 10.830789 l -0.125277,60.16522 c -0.0689,33.09087 -0.02071,60.40577 0.10708,60.69979 0.185187,0.42605 17.673296,0.51266 86.155922,0.4267 l 85.923576,-0.10789 z M 33.346919,272.43573 c -1.668009,-1.14859 -2.004577,-2.25173 -1.129244,-3.7012 0.396837,-0.65711 10.717193,-10.01403 22.934125,-20.79315 12.216931,-10.7791 22.212606,-19.80466 22.212606,-20.05678 0,-0.25211 -10.301783,-9.47526 -22.892852,-20.4959 -12.591072,-11.02065 -23.145543,-20.57157 -23.454382,-21.22429 -1.045072,-2.20872 1.837003,-4.69177 4.37678,-3.77082 1.700166,0.6165 50.539687,43.449 50.962865,44.69468 0.181931,0.53556 0.0086,1.45191 -0.403682,2.13353 -0.865848,1.43162 -47.850583,42.92089 -49.378593,43.60311 -1.451127,0.64791 -1.778965,0.60839 -3.227623,-0.38918 z m 71.763261,-0.38274 c -0.78363,-0.68601 -1.42479,-1.56486 -1.42479,-1.95299 0,-0.38813 0.64116,-1.26699 1.42479,-1.953 l 1.42478,-1.24727 h 25.17742 25.17742 l 1.42477,1.24727 c 1.79102,1.5679 1.79102,2.3381 0,3.90599 l -1.42477,1.24728 h -25.17742 -25.17742 z"
       id="path459"
       inkscape:connector-curvature="0" />
  </g>
</svg>
